<?xml version="1.0" encoding="utf-8"?>
<!-- Generator: Adobe Illustrator 16.0.0, SVG Export Plug-In . SVG Version: 6.00 Build 0)  -->
<!DOCTYPE svg PUBLIC "-//W3C//DTD SVG 1.1//EN" "http://www.w3.org/Graphics/SVG/1.1/DTD/svg11.dtd">
<svg version="1.1" id="图层_1" xmlns="http://www.w3.org/2000/svg" xmlns:xlink="http://www.w3.org/1999/xlink" x="0px" y="0px"
	 width="288.667px" height="63.334px" viewBox="0 0 288.667 63.334" enable-background="new 0 0 288.667 63.334"
	 xml:space="preserve">
<path fill-rule="evenodd" clip-rule="evenodd" fill="#00A0E9" d="M61.972,23.514V10.727c0-2.995-2.519-5.446-5.595-5.446H9.915
	c-3.01,0-5.512,2.451-5.595,5.446v20.747h14.259l-1.492-15.388L4.948,13.788l12.139-1.746l2.211-6.618l1.864,6.797l38.674,1.567
	L21.115,16.18l-1.236,15.294h5.08c2.92-0.197,2.642-0.09,4.669-1.849l2.736-2.716c0.588-0.584,1.176-1.169,1.765-1.753
	c1.184-1.123,2.804-1.707,4.949-1.643H61.972L61.972,23.514z M4.319,34.869h14.588l0.38,3.918l0.316-3.918h9.783h4.758
	c1.744,0.067,3.085-0.613,4.15-1.806c1.254-1.251,2.507-2.502,3.761-3.752c1.44-1.61,3.022-2.423,4.86-2.402
	c0.497,0,0.994,0,1.491,0h13.564v8.146c0,2.996-2.519,5.447-5.595,5.447H9.915c-3.077,0-5.595-2.37-5.595-5.365V34.869z"/>
<path fill-rule="evenodd" clip-rule="evenodd" fill="#00A0E9" d="M10.717,43.52c2.167,0.277,4.924,0.988,4.719,2.047
	c-0.103,0.535-0.799,0.483-1.64,0.499c-1.075,0.02-2.617-0.27-2.948,0.713c-0.665,1.973,1.663,1.606,3.62,3.986
	c0.778,0.946,1.407,3.318,0.298,4.771c-1.769,2.316-3.458,2.088-5.467,1.853c-1.247-0.146-5.525-2.153-4.967-3.646
	c0.556-1.484,2.97,0.758,4.738,0.378c0.932-0.2,1.221-1.281,1.082-1.991c-0.192-0.976-4.535-2.804-4.96-3.253
	c-1.679-1.776-0.671-3.557-0.208-4.16C5.956,43.447,8.55,43.242,10.717,43.52z"/>
<path fill-rule="evenodd" clip-rule="evenodd" fill="#00A0E9" d="M20.163,43.889l10.188,0.04c0.353,0.001,0.753,0.421,0.738,1.068
	c-0.013,0.563-0.524,0.875-0.723,0.876l-2.738,0.007l-0.042,11.455c0,0.002-0.981,0.191-2.18,0.205
	c-0.87,0.037-2.402-0.112-2.402-0.243l-0.019-11.397c-0.932,0.007-1.991,0.009-2.782-0.013c-0.004,0-0.662-0.229-0.691-0.979
	C19.537,44.045,20.084,43.936,20.163,43.889z"/>
<path fill-rule="evenodd" clip-rule="evenodd" fill="#00A0E9" d="M37.02,45.542c0.064-1.329,0.673-1.625,1.123-1.659l5.229,0.013
	c0.424,0.004,1.001,0.519,1.048,1.104c0.667,4.109,1.333,8.077,2,12.187c0.006,0.514-4.379,0.423-4.578,0.047
	c-0.565-2.741-1.687-9.606-1.741-10.163c-0.065-0.659-0.902-0.964-1.019,0.188c-0.06,0.594-1.579,9.325-1.744,9.923
	c-0.193,0.455-2.4,0.522-2.229-0.148C35.747,53.192,36.383,49.384,37.02,45.542z"/>
<path fill-rule="evenodd" clip-rule="evenodd" fill="#00A0E9" d="M50.457,45c0.046-0.848,0.609-1.101,1.316-1.099
	c2.853,0.021,5.792,0.013,8.645,0.034c1.124-0.048,1.521,2.369,1.561,2.746c0.167,1.58-0.173,2.823-1.078,4.018l1.021,6.328
	c0.131,0.815-5.448,0.612-5.525,0.038c-0.085-0.631-0.767-5-1.33-7.717c0.501-0.485,0.953-1.457-0.167-2.443
	c-0.764-0.485-2.007-0.361-2.114,0.759l-0.022,9.408c-0.001,0.676-2.311,0.456-2.3,0.157C50.487,56.597,50.439,49.001,50.457,45z"/>
<path fill="#00A0E9" stroke="#00A0E9" stroke-width="0.216" stroke-miterlimit="22.9256" d="M83.69,10.082
	c0,0.809-0.226,1.435-0.677,1.879s-0.962,0.705-1.537,0.785l1.844,4.484c0.081,0.16,0.176,0.271,0.278,0.334
	c0.102,0.06,0.215,0.09,0.336,0.09h0.37v0.365h-1.721l-2.143-5.211h-1.298v4.36c0,0.163,0.053,0.284,0.155,0.364
	c0.103,0.08,0.236,0.121,0.399,0.121h0.37v0.365h-2.83v-0.365h0.37c0.205,0,0.349-0.041,0.43-0.121
	c0.081-0.08,0.123-0.201,0.123-0.362V8.508c0-0.16-0.042-0.282-0.123-0.362c-0.082-0.08-0.226-0.121-0.43-0.121h-0.37V7.66h3.504
	c0.941,0,1.67,0.201,2.182,0.604C83.434,8.671,83.69,9.275,83.69,10.082L83.69,10.082z M79.143,12.444h1.354
	c0.614,0,1.125-0.182,1.537-0.546c0.409-0.361,0.614-0.928,0.614-1.695c0-0.685-0.183-1.22-0.553-1.603
	c-0.37-0.385-0.942-0.576-1.72-0.576h-0.677c-0.166,0-0.296,0.041-0.399,0.121c-0.102,0.08-0.155,0.202-0.155,0.362V12.444z"/>
<path fill-rule="evenodd" clip-rule="evenodd" fill="#00A0E9" d="M80.384,5.298c4.186,0,7.6,3.414,7.6,7.6
	c0,4.187-3.414,7.601-7.6,7.601s-7.6-3.414-7.6-7.601C72.784,8.712,76.198,5.298,80.384,5.298L80.384,5.298z M80.384,5.675
	c-3.978,0-7.222,3.245-7.222,7.223c0,3.979,3.244,7.223,7.222,7.223s7.223-3.244,7.223-7.223C87.607,8.92,84.362,5.675,80.384,5.675
	z"/>
<path fill-rule="evenodd" clip-rule="evenodd" fill="#1B96D4" d="M281.469,25.105c-1.413,3.331-3.496,4.735-6.86,6.465
	c3.928,1.361,9.218,1.203,9.218,1.203l-0.02,5.724c0,0-10.425-0.432-17.364-5.986c-2.433-2.048-4.393-4.527-5.957-7.072h6.43
	c0.463,0.608,0.951,1.206,1.462,1.784c0.603,0.612,1.227,1.166,1.862,1.67v-0.057c0,0,3.577-0.376,5.942-3.69
	c0.02-0.028,0.04-0.059,0.06-0.089L281.469,25.105L281.469,25.105z M242.845,9.747h16.687v3.243h-16.914l0.045,3.424h16.869v3.303
	h-17.285l-0.162,3.43h8.879c-0.906,1.166-2.022,1.876-3.91,2.787c-1.313,0.634-3.224,0.875-4.969,0.868v5.688l4.636-1.116
	l-0.002,6.875l19.006,0.053l-2.83-3.334l-10.019,0.072l0.017-6.137c2.603-1.487,4.612-4.399,5.53-5.756h25.523v-3.43h-17.637v-3.303
	h16.688V12.99h-16.688V9.602h16.874V5.899h-16.874V4.255h-6.777v1.79h-16.647L242.845,9.747L242.845,9.747z M134.429,26.012
	c0.49,2.96,0.079,4.117,3.168,6.199v6.264c-1.907-0.248-5.223-0.248-7.064-3.965c-1.442-3.161-1.857-6.886-1.815-8.526
	L134.429,26.012L134.429,26.012z M100.044,25.622c-0.49,2.96,0.438,5.337-3.362,7.354v5.479c1.907-0.248,5.417-0.706,7.258-4.423
	c1.442-3.161,1.578-6.886,1.536-8.526L100.044,25.622L100.044,25.622z M200.595,4.32c-0.147,1.617-0.828,3.221-1.958,4.348
	c-0.931,0.93-2.971,2.465-4.804,2.548l0.032,5.863c0,0,1.677-0.322,3.899-0.935l-0.108,22.074l5.788-0.107v-26.95
	c2.281-2.701,3.354-6.747,3.354-6.747L200.595,4.32L200.595,4.32z M213.855,9.267c0.419,3.602,2.339,10.281,6.788,15.687
	c5.211-6.601,7.232-14.291,7.452-18.794h5.666c-0.278,2.286-2.604,14.794-8.916,22.413c5.162,3.304,10.727,3.002,10.727,3.002
	l-0.019,6.574c0,0-8.042-1.512-14.587-6.017c-6.577,4.598-14.167,5.934-14.167,5.934l-0.019-5.969c0,0,4.087,0.309,9.983-3.709
	c-6.238-7.055-8.156-16.727-8.433-18.994L213.855,9.267L213.855,9.267z M157.287,7.914h10.812v-3.66h6.22v3.66h12.342l-0.044,4.419
	h-12.171c0.128,1.083,0.341,4.82,2.922,8.333c3.136,4.27,8.538,4.006,8.538,4.006l-0.023,6.799c0,0-7.424-1.523-12.015-6.206
	c-1.075-1.097-1.966-2.145-2.699-3.543c-0.639,1.187-1.39,2.791-2.273,3.736c-4.378,4.684-11.375,5.898-11.375,5.898l0.106-6.531
	c0,0,4.97,0.304,7.96-3.965c2.123-3.028,2.2-7.084,2.435-8.527h-10.734V7.914L157.287,7.914z M214.867,4.852l3.817,7.992h6.231
	l-2.518-5.27c-0.854-2.185-2.362-2.809-4.169-2.723C217.268,4.852,215.829,4.852,214.867,4.852L214.867,4.852z M115.784,25.985
	c2.508-0.001,4.271-0.001,6.778,0c2.365,0.234,3.426,1.655,3.927,4.262h-10.547L115.784,25.985L115.784,25.985z M98.352,23.631
	c0-5.267,0-10.055,0-15.322c0.282-2.396,2.078-3.712,5.391-3.947h33.66v14.815c0,3.269-1.607,4.454-5.23,4.454H98.352L98.352,23.631
	z M104.188,7.988l-0.009,4.351h10.802l0.009-4.351H104.188L104.188,7.988z M120.012,12.339h11.091l0.009-4.351h-11.09
	L120.012,12.339L120.012,12.339z M115.097,15.616h-10.968v4.164h10.968V15.616L115.097,15.616z M131.219,18.596v-2.979h-11.09v4.164
	h9.591C130.722,19.78,131.219,19.482,131.219,18.596L131.219,18.596z M107.321,25.599l-0.12,8.751
	c-0.037,2.676,1.065,3.84,3.548,3.858l17.657,0.129l-0.829-3.768l-12.34-0.083c-1.128-0.007-1.784-0.342-1.784-1.33l0-7.558H107.321
	L107.321,25.599z M154.41,10.029h-9.278c0-0.766,0,0.008,0-0.758c-0.269-2.232,2.25-3.401,4.751-3.458l4.506-0.034L154.41,10.029
	L154.41,10.029z M148.323,17.171l-0.046,15.218c-0.165,1.85-2.938,1.699-2.939,1.801l-0.028,3.715l41.688-0.032l-0.053-4.272H156.33
	c-1.728,0-2.286-0.576-2.238-2.243l0.118-17.409h-9.451l-0.151,3.224H148.323z"/>
<path fill-rule="evenodd" clip-rule="evenodd" fill="#1B96D4" d="M271.248,48.829c-1.79,0.052-2.085,0.673-2.085,2.396v7.638h-0.782
	l-7.797-7.818v4.708c0,0.607,0.047,1.077,0.139,1.403c0.252,0.885,1.243,1.116,2.153,1.15v0.526h-5.273v-0.526
	c0.786-0.05,1.766-0.217,1.982-1.014c0.08-0.284,0.117-0.77,0.117-1.459v-5.186c0-0.417-0.173-0.937-0.535-1.211
	c-0.438-0.328-1.22-0.583-1.784-0.607v-0.527h4.202l6.7,6.611v-3.592c0-0.612-0.05-1.084-0.146-1.413
	c-0.254-0.875-1.312-1.038-2.122-1.079v-0.527h5.23V48.829L271.248,48.829z M183.418,55.901c0.182,2.307-2.204,3.038-4.4,2.996
	l-4.832-0.071l0.011-3.57h0.903c0.151,0.446,0.162,0.853,0.361,1.206c0.852,1.508,2.336,1.836,3.917,1.532
	c0.548-0.105,1.448-0.611,1.578-1.124c0.732-2.878-4.414-2.509-5.876-4.034c-1.167-1.217-0.951-2.877,0.466-3.771
	c0.791-0.499,2.152-0.761,3.185-0.754c1.358,0.01,2.799,0.091,4.23,0.091l0.026,3.656h-0.818c-0.134-0.402-0.286-0.789-0.449-1.149
	c-0.316-0.705-0.839-1.339-1.599-1.683c-0.847-0.382-1.993-0.311-2.744,0.25c-0.74,0.552-0.877,1.498-0.377,2.236
	C178.313,53.653,183.183,52.913,183.418,55.901L183.418,55.901z M172.502,48.877c-1.79,0.053-2.085,0.673-2.085,2.396v7.559h-1.043
	l-7.536-7.741V55.8c0,0.607,0.046,1.077,0.139,1.403c0.251,0.885,1.243,1.116,2.153,1.15v0.526h-5.273v-0.526
	c0.786-0.05,1.764-0.218,1.982-1.014c0.078-0.284,0.117-0.771,0.117-1.459v-5.186c0-0.417-0.172-0.938-0.535-1.211
	c-0.438-0.328-1.22-0.583-1.784-0.607V48.35h4.202l6.691,6.848l0.008-3.828c0.001-0.612-0.049-1.085-0.145-1.413
	c-0.254-0.875-1.311-1.038-2.122-1.079V48.35h5.23V48.877L172.502,48.877z M105.801,55.843c0.184,2.308-2.204,3.037-4.4,2.996
	l-4.832-0.122l0.01-3.521h0.903c0.152,0.446,0.161,0.851,0.362,1.206c0.854,1.511,2.334,1.84,3.917,1.532
	c0.551-0.106,1.447-0.608,1.579-1.124c0.735-2.879-4.563-2.374-5.876-4.033c-0.965-1.221-0.748-2.875,0.466-3.772
	c0.755-0.557,2.048-0.813,3.083-0.804c1.361,0.012,2.93,0.121,4.361,0.121l-0.003,3.677h-0.818c-0.133-0.403-0.284-0.786-0.449-1.15
	c-0.319-0.706-0.836-1.337-1.599-1.683c-0.85-0.384-1.991-0.313-2.744,0.25c-0.743,0.554-0.879,1.496-0.377,2.236
	C100.698,53.596,105.563,52.853,105.801,55.843L105.801,55.843z M242.611,58.872h-5.682v-0.526c0.675-0.017,2.004,0.015,2.004-0.958
	V49.73h-0.222l-4.3,8.972h-0.455l-4.175-9.159h-0.117v6.287c0,1.731,0.391,2.44,2.208,2.516v0.526h-5.189v-0.526
	c1.835-0.136,2.1-0.56,2.1-2.436v-5.388c0-1.259-0.9-1.61-2.02-1.653v-0.527h5.163l3.22,7.118c0.957-2.01,2.758-5.924,3.252-7.118
	h4.194v0.527c-0.667,0.021-1.498,0.044-1.498,0.927v7.592c0,0.865,0.866,0.937,1.517,0.958V58.872L242.611,58.872z M256.044,55.77
	l-0.014,3.103h-10.903v-0.526c0.661-0.037,1.581,0.022,1.581-0.905v-7.57c0-0.87-0.925-0.96-1.581-1.001v-0.527h9.949v2.539h-0.681
	c-0.12-0.378-0.382-0.777-0.782-1.199c-0.811-0.855-1.637-0.754-2.706-0.754h-1.771v4.187h1.201c1.277,0,1.926-0.473,2.109-1.722
	h0.681v4.118h-0.681c-0.141-1.344-0.822-1.796-2.109-1.796h-1.201v3.162c0,1.451,0.675,1.388,1.953,1.388
	c0.674,0,2.312,0.099,2.845-0.35c0.561-0.485,1.201-1.449,1.457-2.146H256.044L256.044,55.77z M283.832,51.2h-0.625
	c-0.241-0.781-1.185-2.131-1.985-2.22c-0.668-0.074-1.102-0.062-1.771-0.062v8.424c0,0.914,1.154,0.985,1.816,1.003v0.526h-6.071
	v-0.526c0.685-0.041,1.826,0.054,1.826-0.935v-8.492c-0.673,0-1.103-0.007-1.77,0.062c-0.822,0.083-1.742,1.5-1.986,2.22h-0.634
	v-2.858h11.199V51.2L283.832,51.2z M118.585,51.199h-0.625c-0.239-0.779-1.185-2.13-1.985-2.219
	c-0.668-0.074-1.101-0.061-1.771-0.061v8.423c0,0.914,1.154,0.985,1.816,1.003v0.526h-6.071v-0.526
	c0.685-0.041,1.826,0.054,1.826-0.935V48.92c-0.674,0-1.1-0.007-1.77,0.061c-0.824,0.083-1.722,1.441-1.986,2.219h-0.634v-2.857
	h11.199V51.199L118.585,51.199z M132.5,58.872h-5.852v-0.526c0.47-0.025,0.859-0.075,1.172-0.149
	c0.412-0.099,0.566-0.226,0.393-0.608l-1.067-2.358h-4.003c-0.322,0.651-0.696,1.424-0.863,2.136
	c-0.028,0.134-0.043,0.243-0.043,0.326c0,0.54,1.5,0.639,1.855,0.654v0.526h-4.837v-0.526c0.981-0.063,1.673-0.391,2.119-1.3
	c1.438-2.935,2.376-5.753,3.782-8.706h1.548l3.905,8.937c0.332,0.759,1.098,1.042,1.892,1.069V58.872L132.5,58.872z M126.818,54.568
	l-1.69-4.084l-1.671,4.084H126.818L126.818,54.568z M146.379,58.872l-4.074-0.038c-1.293-1.661-2.388-3.246-3.836-4.772l-0.71,0.038
	v3.342c0,0.929,0.848,0.885,1.535,0.904v0.526h-5.437v-0.526c0.667-0.047,1.474,0.022,1.474-0.904v-7.615
	c0-0.9-0.798-0.917-1.474-0.957v-0.527h5.935c1.598,0,4.061,0.448,4.061,2.508c0,1.774-1.456,2.434-2.984,2.797
	c1.052,1.143,1.933,2.335,2.974,3.488c0.723,0.8,1.463,1.176,2.536,1.211V58.872L146.379,58.872z M141.42,51.02
	c0-1.493-1.045-2.077-2.372-2.077h-1.291v4.52h0.938C140.182,53.462,141.42,52.662,141.42,51.02L141.42,51.02z M156.972,58.872
	h-5.792v-0.526c0.646-0.04,1.681,0.078,1.681-0.861v-7.63c0-0.873-1.035-0.948-1.681-0.985v-0.527h5.792v0.527
	c-0.661,0.018-1.68,0.022-1.68,0.912v7.622c0,0.857,1.06,0.926,1.68,0.942V58.872L156.972,58.872z M196.362,51.199h-0.626
	c-0.241-0.782-1.179-2.129-1.985-2.219c-0.667-0.074-1.101-0.061-1.77-0.061v8.423c0,0.915,1.153,0.985,1.816,1.003v0.526h-6.071
	v-0.526c0.685-0.041,1.826,0.054,1.826-0.935V48.92c-0.674,0-1.103-0.007-1.771,0.061c-0.82,0.083-1.744,1.5-1.985,2.219h-0.634
	v-2.857h11.199V51.199L196.362,51.199z M210.813,58.872l-3.88-0.046c-1.293-1.661-2.6-3.201-4.048-4.727h-0.693v3.342
	c0,0.929,0.85,0.885,1.535,0.904v0.526h-5.437v-0.526c0.666-0.047,1.473,0.023,1.473-0.904v-7.615c0-0.907-0.78-0.916-1.473-0.957
	v-0.527h5.935c1.623,0,4.061,0.474,4.061,2.508c0,1.811-1.338,2.578-2.811,2.928c1.052,1.143,1.761,2.204,2.802,3.357
	c0.722,0.8,1.463,1.176,2.536,1.211V58.872L210.813,58.872z M205.907,51.02c0-1.493-1.1-2.077-2.425-2.077h-1.291v4.52h0.938
	C204.615,53.462,205.907,52.662,205.907,51.02L205.907,51.02z M225.207,48.869c-1.772,0.053-2.084,0.601-2.084,2.346v4.577
	c0,1.409-1.892,2.888-3.121,3.158c-2.05,0.452-6.577,0.003-6.577-2.854V49.87c0-0.826-0.803-0.958-1.437-1.001v-0.527h5.604v0.527
	c-0.671,0.02-1.72,0.047-1.72,0.927v5.819c0,0.634,0.141,1.257,0.56,1.75c0.651,0.766,1.425,0.927,2.38,0.927
	c1.616,0,3.165-0.894,3.165-2.662v-4.319c0-1.684-0.411-2.344-2.273-2.441v-0.527h5.504V48.869z"/>
</svg>
